<svg version="1.1" xmlns="http://www.w3.org/2000/svg" xmlns:xlink="http://www.w3.org/1999/xlink" width="710.96918" height="177.62793" viewBox="0,0,710.96918,177.62793"><g transform="translate(40.28783,-109.48755)"><g stroke-miterlimit="10"><g fill="#4a677f" stroke="#4a677e"><path d="M-3.70249,225.39547c-0.61223,4.59247 -4.22442,8.39178 -9.03272,8.97654l-15.45971,1.87472c-2.75898,0.33843 -5.48521,-0.42278 -7.67788,-2.1409c-2.19266,-1.71812 -3.58378,-4.18318 -3.91502,-6.94304c-0.33741,-2.76028 0.42348,-5.48909 2.13945,-7.67901c1.71812,-2.19266 4.18465,-3.58265 6.94625,-3.91642l15.45841,-1.87574c4.63487,-0.5624 9.14824,2.34349 10.88913,6.55787zM-9.35912,226.08199c0,0 0.48297,-4.59347 -1.44967,-6.10784c-1.0838,-0.84924 -2.4339,-1.22529 -3.80345,-1.06158l-15.45567,1.8779c-1.36923,0.16629 -2.58881,0.85516 -3.43816,1.93911c-0.8472,1.0812 -1.22554,2.43159 -1.05696,3.80054c0.3275,2.73029 3.00622,4.82928 5.73561,4.4943l15.45971,-1.87474c1.86204,-0.22594 3.29706,-1.46574 4.00859,-3.06771z" stroke-width="1" stroke-linecap="butt"/><path d="M-12.97253,223.60347l26.06038,-3.1622" stroke-width="5" stroke-linecap="round"/><path d="M38.41499,220.28488c-0.61223,4.59247 -4.22442,8.39177 -9.03272,8.97654l-15.45971,1.87472c-2.75899,0.33843 -5.48521,-0.42278 -7.67788,-2.1409c-2.19265,-1.71812 -3.58378,-4.18318 -3.91502,-6.94304c-0.33741,-2.76028 0.42348,-5.48909 2.13945,-7.67901c1.71812,-2.19266 4.18465,-3.58265 6.94625,-3.91642l15.45841,-1.87574c4.63488,-0.5624 9.14824,2.3435 10.88912,6.55788zM32.75836,220.9714c0,0 0.48297,-4.59347 -1.44967,-6.10784c-1.0838,-0.84924 -2.4339,-1.22529 -3.80345,-1.06158l-15.45566,1.87791c-1.36923,0.16629 -2.58881,0.85517 -3.43816,1.93911c-0.8472,1.0812 -1.22554,2.43158 -1.05696,3.80053c0.3275,2.73029 3.00622,4.82928 5.73561,4.4943l15.4597,-1.87474c1.86204,-0.22594 3.29706,-1.46574 4.00859,-3.06771z" stroke-width="1" stroke-linecap="butt"/><path d="M29.14494,218.49289l26.06039,-3.1622" stroke-width="5" stroke-linecap="round"/><path d="M80.53246,215.17429c-0.61223,4.59247 -4.22442,8.39178 -9.03272,8.97654l-15.45971,1.87472c-2.75899,0.33843 -5.48521,-0.42278 -7.67788,-2.1409c-2.19266,-1.71812 -3.58378,-4.18318 -3.91502,-6.94304c-0.33741,-2.76028 0.42348,-5.48909 2.13945,-7.67901c1.71812,-2.19266 4.18465,-3.58265 6.94625,-3.91642l15.45841,-1.87574c4.63487,-0.5624 9.14825,2.3435 10.88913,6.55788zM74.87583,215.86082c0,0 0.48297,-4.59347 -1.44967,-6.10784c-1.0838,-0.84924 -2.43389,-1.22529 -3.80344,-1.06158l-15.45567,1.8779c-1.36923,0.16629 -2.58881,0.85517 -3.43816,1.93911c-0.8472,1.0812 -1.22554,2.43158 -1.05696,3.80053c0.3275,2.73029 3.00623,4.82929 5.73561,4.4943l15.4597,-1.87474c1.86204,-0.22594 3.29706,-1.46574 4.00859,-3.06771z" stroke-width="1" stroke-linecap="butt"/><path d="M97.32282,210.22008l-26.06039,3.1622" stroke-width="5" stroke-linecap="round"/><path d="M122.64994,210.0637c-0.61223,4.59247 -4.22442,8.39178 -9.03272,8.97654l-15.45971,1.87472c-2.75898,0.33843 -5.48521,-0.42277 -7.67788,-2.1409c-2.19266,-1.71812 -3.58378,-4.18319 -3.91502,-6.94305c-0.33741,-2.76028 0.42348,-5.48908 2.13945,-7.679c1.71812,-2.19266 4.18465,-3.58266 6.94625,-3.91643l15.45841,-1.87574c4.63487,-0.5624 9.14824,2.34349 10.88912,6.55788zM116.99331,210.75023c0,0 0.48297,-4.59347 -1.44967,-6.10784c-1.0838,-0.84924 -2.4339,-1.22528 -3.80345,-1.06158l-15.45566,1.8779c-1.36923,0.16629 -2.58881,0.85517 -3.43816,1.93911c-0.8472,1.0812 -1.22555,2.43159 -1.05697,3.80054c0.3275,2.73029 3.00623,4.82928 5.73561,4.4943l15.45971,-1.87474c1.86204,-0.22594 3.29706,-1.46574 4.00859,-3.06771z" stroke-width="1" stroke-linecap="butt"/><path d="M139.44028,205.10951l-26.06038,3.1622" stroke-width="5" stroke-linecap="round"/><path d="M164.76742,204.95311c-0.61223,4.59247 -4.22441,8.39179 -9.03272,8.97654l-15.45971,1.87472c-2.75898,0.33843 -5.48521,-0.42279 -7.67787,-2.14091c-2.19266,-1.71812 -3.58379,-4.18318 -3.91503,-6.94304c-0.33742,-2.76028 0.42348,-5.48909 2.13945,-7.67901c1.71812,-2.19266 4.18465,-3.58265 6.94625,-3.91642l15.45841,-1.87574c4.63487,-0.5624 9.14825,2.34349 10.88912,6.55788zM159.11079,205.63964c0,0 0.48297,-4.59347 -1.44967,-6.10784c-1.0838,-0.84924 -2.43389,-1.22527 -3.80345,-1.06158l-15.45566,1.8779c-1.36923,0.16629 -2.58881,0.85517 -3.43816,1.93911c-0.8472,1.0812 -1.22555,2.43159 -1.05696,3.80054c0.3275,2.73029 3.00623,4.82928 5.73561,4.49429l15.4597,-1.87474c1.86204,-0.22594 3.29706,-1.46574 4.00859,-3.06771z" stroke-width="1" stroke-linecap="butt"/><path d="M155.49737,203.16112l26.06039,-3.1622" stroke-width="5" stroke-linecap="round"/><path d="M206.8849,199.84252c-0.61223,4.59247 -4.22441,8.39179 -9.03272,8.97654l-15.45971,1.87472c-2.75898,0.33843 -5.48521,-0.42278 -7.67786,-2.1409c-2.19266,-1.71812 -3.58379,-4.18318 -3.91502,-6.94304c-0.33742,-2.76028 0.42349,-5.48909 2.13946,-7.67901c1.71812,-2.19266 4.18464,-3.58265 6.94624,-3.91643l15.45842,-1.87573c4.63487,-0.5624 9.14824,2.34349 10.88912,6.55788zM201.22827,200.52905c0,0 0.48296,-4.59347 -1.44968,-6.10784c-1.0838,-0.84924 -2.43389,-1.22527 -3.80345,-1.06158l-15.45567,1.8779c-1.36923,0.16629 -2.5888,0.85517 -3.43814,1.93911c-0.8472,1.0812 -1.22556,2.43159 -1.05697,3.80054c0.3275,2.73029 3.00623,4.82928 5.73562,4.4943l15.45969,-1.87474c1.86204,-0.22594 3.29706,-1.46575 4.00859,-3.06771z" stroke-width="1" stroke-linecap="butt"/><path d="M197.61485,198.05053l26.06038,-3.1622" stroke-width="5" stroke-linecap="round"/><path d="M249.00237,194.73194c-0.61223,4.59247 -4.22441,8.39178 -9.03272,8.97654l-15.45971,1.87472c-2.75898,0.33843 -5.48521,-0.42278 -7.67787,-2.1409c-2.19266,-1.71812 -3.58379,-4.18318 -3.91502,-6.94304c-0.33742,-2.76028 0.42349,-5.48909 2.13946,-7.679c1.71812,-2.19266 4.18464,-3.58266 6.94624,-3.91644l15.45842,-1.87573c4.63487,-0.5624 9.14824,2.34349 10.88912,6.55788zM243.34575,195.41846c0,0 0.48296,-4.59347 -1.44967,-6.10784c-1.0838,-0.84924 -2.43389,-1.22528 -3.80345,-1.06158l-15.45567,1.8779c-1.36923,0.16629 -2.5888,0.85517 -3.43815,1.93911c-0.8472,1.0812 -1.22555,2.43159 -1.05696,3.80054c0.3275,2.73029 3.00623,4.82928 5.73561,4.4943l15.4597,-1.87474c1.86204,-0.22594 3.29706,-1.46575 4.00859,-3.06771z" stroke-width="1" stroke-linecap="butt"/><path d="M265.79272,189.77774l-26.06039,3.16221" stroke-width="5" stroke-linecap="round"/><path d="M291.11985,189.62135c-0.61223,4.59247 -4.2244,8.39179 -9.03272,8.97655l-15.45971,1.87471c-2.75898,0.33843 -5.48521,-0.42278 -7.67787,-2.1409c-2.19266,-1.71812 -3.58378,-4.18318 -3.91502,-6.94303c-0.33742,-2.76028 0.42349,-5.48909 2.13946,-7.67901c1.71812,-2.19266 4.18464,-3.58265 6.94624,-3.91643l15.45842,-1.87574c4.63488,-0.5624 9.14824,2.34349 10.88912,6.55788zM285.46322,190.30787c0,0 0.48296,-4.59347 -1.44967,-6.10784c-1.0838,-0.84924 -2.43389,-1.22528 -3.80345,-1.06158l-15.45567,1.8779c-1.36923,0.16629 -2.5888,0.85517 -3.43815,1.93911c-0.8472,1.0812 -1.22555,2.43159 -1.05696,3.80054c0.3275,2.73029 3.00623,4.82928 5.73561,4.4943l15.4597,-1.87474c1.86204,-0.22594 3.29706,-1.46575 4.00858,-3.06771z" stroke-width="1" stroke-linecap="butt"/><path d="M307.91019,184.66715l-26.06038,3.1622" stroke-width="5" stroke-linecap="round"/><path d="M333.23733,184.51076c-0.61223,4.59247 -4.22441,8.39179 -9.03272,8.97655l-15.45971,1.87472c-2.75898,0.33843 -5.48521,-0.42278 -7.67786,-2.1409c-2.19266,-1.71812 -3.58379,-4.18318 -3.91502,-6.94303c-0.33742,-2.76028 0.42349,-5.48909 2.13946,-7.67901c1.71812,-2.19266 4.18464,-3.58265 6.94624,-3.91643l15.45842,-1.87574c4.63488,-0.5624 9.14824,2.34349 10.88911,6.55788zM327.5807,185.19728c0,0 0.48296,-4.59347 -1.44967,-6.10784c-1.0838,-0.84924 -2.43389,-1.22527 -3.80345,-1.06158l-15.45567,1.8779c-1.36923,0.16629 -2.5888,0.85518 -3.43815,1.93912c-0.8472,1.0812 -1.22555,2.43158 -1.05696,3.80053c0.3275,2.73029 3.00623,4.82928 5.73561,4.4943l15.4597,-1.87474c1.86204,-0.22594 3.29706,-1.46574 4.00858,-3.06771z" stroke-width="1" stroke-linecap="butt"/><path d="M350.02767,179.55656l-26.06038,3.1622" stroke-width="5" stroke-linecap="round"/><path d="M375.3548,179.40017c-0.61223,4.59247 -4.2244,8.39179 -9.03271,8.97655l-15.45972,1.87472c-2.75898,0.33843 -5.48521,-0.42279 -7.67786,-2.14091c-2.19266,-1.71812 -3.58379,-4.18318 -3.91502,-6.94303c-0.33742,-2.76028 0.42349,-5.48909 2.13946,-7.67901c1.71812,-2.19266 4.18464,-3.58265 6.94624,-3.91643l15.45842,-1.87574c4.63488,-0.5624 9.14824,2.34349 10.88912,6.55788zM369.69818,180.08669c0,0 0.48296,-4.59347 -1.44968,-6.10784c-1.0838,-0.84924 -2.43389,-1.22527 -3.80345,-1.06158l-15.45566,1.8779c-1.36923,0.16629 -2.5888,0.85517 -3.43815,1.93911c-0.8472,1.0812 -1.22556,2.43158 -1.05697,3.80053c0.3275,2.73029 3.00623,4.82929 5.73562,4.4943l15.4597,-1.87474c1.86204,-0.22594 3.29705,-1.46574 4.00858,-3.06771z" stroke-width="1" stroke-linecap="butt"/><path d="M392.14515,174.44597l-26.06038,3.1622" stroke-width="5" stroke-linecap="round"/><path d="M417.47228,174.28958c-0.61223,4.59247 -4.2244,8.39179 -9.03272,8.97654l-15.45971,1.87472c-2.75898,0.33843 -5.48521,-0.42279 -7.67786,-2.14091c-2.19266,-1.71812 -3.58378,-4.18318 -3.91502,-6.94303c-0.33742,-2.76028 0.42348,-5.48909 2.13945,-7.67901c1.71812,-2.19266 4.18464,-3.58265 6.94624,-3.91643l15.45842,-1.87574c4.63488,-0.5624 9.14824,2.34349 10.88912,6.55788zM411.81565,174.9761c0,0 0.48296,-4.59347 -1.44968,-6.10784c-1.0838,-0.84924 -2.43389,-1.22527 -3.80345,-1.06158l-15.45566,1.8779c-1.36923,0.16629 -2.5888,0.85517 -3.43815,1.93911c-0.8472,1.0812 -1.22556,2.43159 -1.05697,3.80054c0.3275,2.73029 3.00623,4.82928 5.73561,4.4943l15.45971,-1.87473c1.86204,-0.22594 3.29705,-1.46575 4.00858,-3.06771z" stroke-width="1" stroke-linecap="butt"/><path d="M434.26263,169.33538l-26.06039,3.1622" stroke-width="5" stroke-linecap="round"/><path d="M459.58976,169.17899c-0.61223,4.59247 -4.22441,8.39179 -9.03272,8.97654l-15.45971,1.87472c-2.75898,0.33843 -5.48521,-0.42278 -7.67786,-2.1409c-2.19266,-1.71812 -3.58378,-4.18318 -3.91502,-6.94304c-0.33742,-2.76028 0.42348,-5.48909 2.13945,-7.679c1.71812,-2.19266 4.18464,-3.58266 6.94624,-3.91644l15.45842,-1.87573c4.63488,-0.5624 9.14824,2.34349 10.88912,6.55788zM453.93313,169.86551c0,0 0.48296,-4.59347 -1.44968,-6.10784c-1.0838,-0.84924 -2.43389,-1.22527 -3.80345,-1.06158l-15.45566,1.8779c-1.36923,0.16629 -2.58881,0.85517 -3.43816,1.93911c-0.8472,1.0812 -1.22555,2.43159 -1.05696,3.80054c0.3275,2.73029 3.00623,4.82928 5.73561,4.4943l15.45971,-1.87473c1.86204,-0.22594 3.29705,-1.46575 4.00858,-3.06771z" stroke-width="1" stroke-linecap="butt"/><path d="M476.3801,164.22479l-26.06039,3.1622" stroke-width="5" stroke-linecap="round"/><path d="M501.70723,164.0684c-0.61223,4.59247 -4.2244,8.39178 -9.03271,8.97654l-15.45971,1.87472c-2.75898,0.33843 -5.48522,-0.42278 -7.67787,-2.1409c-2.19266,-1.71812 -3.58378,-4.18318 -3.91501,-6.94304c-0.33742,-2.76028 0.42348,-5.48909 2.13945,-7.679c1.71812,-2.19267 4.18464,-3.58266 6.94624,-3.91643l15.45842,-1.87574c4.63488,-0.5624 9.14824,2.34349 10.88912,6.55787zM496.05061,164.75492c0,0 0.48296,-4.59347 -1.44968,-6.10784c-1.0838,-0.84924 -2.4339,-1.22527 -3.80345,-1.06157l-15.45566,1.8779c-1.36923,0.16629 -2.5888,0.85517 -3.43815,1.93911c-0.8472,1.0812 -1.22555,2.43158 -1.05696,3.80054c0.3275,2.73029 3.00623,4.82928 5.73561,4.4943l15.4597,-1.87474c1.86204,-0.22594 3.29706,-1.46574 4.00858,-3.06771z" stroke-width="1" stroke-linecap="butt"/><path d="M492.43719,162.27641l26.06039,-3.1622" stroke-width="5" stroke-linecap="round"/><path d="M543.82471,158.95781c-0.61223,4.59247 -4.2244,8.39179 -9.03272,8.97655l-15.45972,1.87471c-2.75899,0.33844 -5.48522,-0.42277 -7.67787,-2.14089c-2.19266,-1.71812 -3.58378,-4.18318 -3.91501,-6.94304c-0.33742,-2.76028 0.42348,-5.48909 2.13945,-7.67901c1.71812,-2.19267 4.18463,-3.58265 6.94623,-3.91643l15.45842,-1.87574c4.63487,-0.5624 9.14825,2.34349 10.88913,6.55787zM538.16809,159.64433c0,0 0.48295,-4.59347 -1.44968,-6.10784c-1.0838,-0.84924 -2.4339,-1.22526 -3.80345,-1.06157l-15.45566,1.8779c-1.36923,0.16629 -2.58881,0.85517 -3.43816,1.93911c-0.8472,1.0812 -1.22555,2.43158 -1.05696,3.80053c0.3275,2.73029 3.00623,4.82929 5.73561,4.4943l15.4597,-1.87474c1.86204,-0.22594 3.29706,-1.46574 4.00859,-3.0677z" stroke-width="1" stroke-linecap="butt"/><path d="M534.55467,157.16582l26.06038,-3.1622" stroke-width="5" stroke-linecap="round"/><path d="M585.94219,153.84722c-0.61223,4.59247 -4.2244,8.39179 -9.03271,8.97655l-15.45972,1.87471c-2.75899,0.33844 -5.48522,-0.42277 -7.67787,-2.14089c-2.19265,-1.71812 -3.58379,-4.18318 -3.91502,-6.94304c-0.33741,-2.76028 0.42349,-5.48909 2.13945,-7.67901c1.71812,-2.19267 4.18464,-3.58265 6.94624,-3.91643l15.45842,-1.87574c4.63487,-0.5624 9.14824,2.3435 10.88912,6.55788zM580.28556,154.53375c0,0 0.48296,-4.59347 -1.44968,-6.10784c-1.0838,-0.84924 -2.43389,-1.22527 -3.80345,-1.06158l-15.45567,1.8779c-1.36923,0.16629 -2.5888,0.85517 -3.43815,1.93911c-0.8472,1.0812 -1.22555,2.43158 -1.05696,3.80053c0.3275,2.73029 3.00623,4.82929 5.73561,4.4943l15.4597,-1.87474c1.86204,-0.22594 3.29706,-1.46574 4.00859,-3.06771z" stroke-width="1" stroke-linecap="butt"/><path d="M602.73253,148.89303l-26.06039,3.1622" stroke-width="5" stroke-linecap="round"/><path d="M628.05968,148.73662c-0.61223,4.59247 -4.2244,8.39179 -9.03272,8.97654l-15.45971,1.87472c-2.75899,0.33844 -5.48522,-0.42277 -7.67787,-2.14089c-2.19265,-1.71812 -3.58379,-4.18318 -3.91502,-6.94304c-0.33741,-2.76028 0.42349,-5.48909 2.13946,-7.67901c1.71812,-2.19267 4.18464,-3.58266 6.94624,-3.91643l15.45841,-1.87574c4.63487,-0.5624 9.14824,2.34349 10.88912,6.55787zM622.40304,149.42316c0,0 0.48296,-4.59347 -1.44967,-6.10784c-1.0838,-0.84924 -2.4339,-1.22527 -3.80345,-1.06158l-15.45566,1.8779c-1.36923,0.16629 -2.58881,0.85517 -3.43816,1.93911c-0.8472,1.0812 -1.22555,2.43159 -1.05696,3.80054c0.3275,2.73029 3.00623,4.82928 5.73561,4.4943l15.4597,-1.87474c1.86204,-0.22594 3.29705,-1.46574 4.00858,-3.06771z" stroke-width="1" stroke-linecap="butt"/><path d="M644.85001,143.78244l-26.06038,3.1622" stroke-width="5" stroke-linecap="round"/><path d="M670.17715,143.62604c-0.61223,4.59247 -4.2244,8.39178 -9.03271,8.97654l-15.45972,1.87473c-2.75899,0.33844 -5.48521,-0.42278 -7.67786,-2.1409c-2.19265,-1.71812 -3.58379,-4.18318 -3.91502,-6.94305c-0.33741,-2.76028 0.42349,-5.48909 2.13945,-7.67901c1.71812,-2.19266 4.18464,-3.58265 6.94624,-3.91643l15.45842,-1.87573c4.63487,-0.5624 9.14824,2.34349 10.88912,6.55787zM664.52052,144.31257c0,0 0.48296,-4.59347 -1.44967,-6.10784c-1.0838,-0.84924 -2.4339,-1.22527 -3.80345,-1.06158l-15.45566,1.8779c-1.36923,0.16629 -2.5888,0.85517 -3.43815,1.93911c-0.8472,1.0812 -1.22555,2.43159 -1.05696,3.80054c0.3275,2.73029 3.00623,4.82928 5.73561,4.4943l15.4597,-1.87473c1.86204,-0.22594 3.29706,-1.46575 4.00859,-3.06772z" stroke-width="1" stroke-linecap="butt"/></g><text transform="translate(165.21538,214.90314) scale(2.0168,1.0084) skewX(-28.48304)" font-size="40" xml:space="preserve" fill="#484848" stroke="#000000" stroke-width="0" stroke-linecap="butt" font-family="&quot;Comic Sans MS&quot;, Handwriting" font-weight="400" text-anchor="start"><tspan x="0" dy="0">waechain</tspan></text><text transform="translate(152.59042,203.26875) scale(2.0168,2.0168)" font-size="40" xml:space="preserve" fill="#ffffff" stroke="#000000" stroke-width="5" stroke-linecap="butt" font-family="&quot;Comic Sans MS&quot;, Handwriting" font-weight="400" text-anchor="start"><tspan x="0" dy="0">waechain</tspan></text><text transform="translate(152.59042,203.26875) scale(2.0168,2.0168)" font-size="40" xml:space="preserve" fill="#ffffff" stroke="#000000" stroke-width="0" stroke-linecap="butt" font-family="&quot;Comic Sans MS&quot;, Handwriting" font-weight="400" text-anchor="start"><tspan x="0" dy="0">waechain</tspan></text><text transform="translate(247.5,233.2391) scale(0.5,0.5)" font-size="40" xml:space="preserve" fill="#ffffff" stroke="#000000" stroke-width="1" stroke-linecap="butt" font-family="&quot;Comic Sans MS&quot;, Handwriting" font-weight="400" text-anchor="start"><tspan x="0" dy="0">the scratch maelink client</tspan></text><text transform="translate(262.99316,280.86548) scale(0.5,0.5)" font-size="40" xml:space="preserve" fill="#ffffff" stroke="none" stroke-width="1" stroke-linecap="butt" font-family="&quot;Comic Sans MS&quot;, Handwriting" font-weight="normal" text-anchor="start"><tspan x="0" dy="0">connecting...</tspan></text></g></g></svg>