<svg version="1.1" xmlns="http://www.w3.org/2000/svg" xmlns:xlink="http://www.w3.org/1999/xlink" width="710.96918" height="304.51245" viewBox="0,0,710.96918,304.51245"><g transform="translate(40.28781,-109.48755)"><g stroke-miterlimit="10"><g fill="#4a677f" stroke="#4a677e"><path d="M-3.70248,225.39547c-0.61223,4.59247 -4.22442,8.39178 -9.03272,8.97654l-15.45971,1.87472c-2.75898,0.33843 -5.48521,-0.42278 -7.67788,-2.1409c-2.19266,-1.71812 -3.58378,-4.18318 -3.91502,-6.94304c-0.33741,-2.76028 0.42348,-5.48909 2.13945,-7.67901c1.71812,-2.19266 4.18465,-3.58265 6.94625,-3.91642l15.45841,-1.87574c4.63487,-0.5624 9.14824,2.34349 10.88913,6.55787zM-9.35911,226.08199c0,0 0.48297,-4.59347 -1.44967,-6.10784c-1.0838,-0.84924 -2.4339,-1.22529 -3.80345,-1.06158l-15.45567,1.8779c-1.36923,0.16629 -2.58881,0.85516 -3.43816,1.93911c-0.8472,1.0812 -1.22554,2.43159 -1.05696,3.80054c0.3275,2.73029 3.00622,4.82928 5.73561,4.4943l15.45971,-1.87474c1.86204,-0.22594 3.29706,-1.46574 4.00859,-3.06771z" stroke-width="1" stroke-linecap="butt"/><path d="M-12.97252,223.60347l26.06038,-3.1622" stroke-width="5" stroke-linecap="round"/><path d="M38.415,220.28488c-0.61223,4.59247 -4.22442,8.39177 -9.03272,8.97654l-15.45971,1.87472c-2.75899,0.33843 -5.48521,-0.42278 -7.67788,-2.1409c-2.19265,-1.71812 -3.58378,-4.18318 -3.91502,-6.94304c-0.33741,-2.76028 0.42348,-5.48909 2.13945,-7.67901c1.71812,-2.19266 4.18465,-3.58265 6.94625,-3.91642l15.45841,-1.87574c4.63488,-0.5624 9.14824,2.3435 10.88912,6.55788zM32.75837,220.9714c0,0 0.48297,-4.59347 -1.44967,-6.10784c-1.0838,-0.84924 -2.4339,-1.22529 -3.80345,-1.06158l-15.45566,1.87791c-1.36923,0.16629 -2.58881,0.85517 -3.43816,1.93911c-0.8472,1.0812 -1.22554,2.43158 -1.05696,3.80053c0.3275,2.73029 3.00622,4.82928 5.73561,4.4943l15.4597,-1.87474c1.86204,-0.22594 3.29706,-1.46574 4.00859,-3.06771z" stroke-width="1" stroke-linecap="butt"/><path d="M29.14495,218.49289l26.06039,-3.1622" stroke-width="5" stroke-linecap="round"/><path d="M80.53247,215.17429c-0.61223,4.59247 -4.22442,8.39178 -9.03272,8.97654l-15.45971,1.87472c-2.75899,0.33843 -5.48521,-0.42278 -7.67788,-2.1409c-2.19266,-1.71812 -3.58378,-4.18318 -3.91502,-6.94304c-0.33741,-2.76028 0.42348,-5.48909 2.13945,-7.67901c1.71812,-2.19266 4.18465,-3.58265 6.94625,-3.91642l15.45841,-1.87574c4.63487,-0.5624 9.14825,2.3435 10.88913,6.55788zM74.87583,215.86082c0,0 0.48297,-4.59347 -1.44967,-6.10784c-1.0838,-0.84924 -2.43389,-1.22529 -3.80344,-1.06158l-15.45567,1.8779c-1.36923,0.16629 -2.58881,0.85517 -3.43816,1.93911c-0.8472,1.0812 -1.22554,2.43158 -1.05696,3.80053c0.3275,2.73029 3.00623,4.82929 5.73561,4.4943l15.4597,-1.87474c1.86204,-0.22594 3.29706,-1.46574 4.00859,-3.06771z" stroke-width="1" stroke-linecap="butt"/><path d="M97.32283,210.22008l-26.06039,3.1622" stroke-width="5" stroke-linecap="round"/><path d="M122.64995,210.0637c-0.61223,4.59247 -4.22442,8.39178 -9.03272,8.97654l-15.45971,1.87472c-2.75898,0.33843 -5.48521,-0.42277 -7.67788,-2.1409c-2.19266,-1.71812 -3.58378,-4.18319 -3.91502,-6.94305c-0.33741,-2.76028 0.42348,-5.48908 2.13945,-7.679c1.71812,-2.19266 4.18465,-3.58266 6.94625,-3.91643l15.45841,-1.87574c4.63487,-0.5624 9.14824,2.34349 10.88912,6.55788zM116.99332,210.75023c0,0 0.48297,-4.59347 -1.44967,-6.10784c-1.0838,-0.84924 -2.4339,-1.22528 -3.80345,-1.06158l-15.45566,1.8779c-1.36923,0.16629 -2.58881,0.85517 -3.43816,1.93911c-0.8472,1.0812 -1.22555,2.43159 -1.05697,3.80054c0.3275,2.73029 3.00623,4.82928 5.73561,4.4943l15.45971,-1.87474c1.86204,-0.22594 3.29706,-1.46574 4.00859,-3.06771z" stroke-width="1" stroke-linecap="butt"/><path d="M113.37991,208.27171l26.06038,-3.1622" stroke-width="5" stroke-linecap="round"/><path d="M164.76743,204.95311c-0.61223,4.59247 -4.22441,8.39179 -9.03272,8.97654l-15.45971,1.87472c-2.75898,0.33843 -5.48521,-0.42279 -7.67787,-2.14091c-2.19266,-1.71812 -3.58379,-4.18318 -3.91503,-6.94304c-0.33742,-2.76028 0.42348,-5.48909 2.13945,-7.67901c1.71812,-2.19266 4.18465,-3.58265 6.94625,-3.91642l15.45841,-1.87574c4.63487,-0.5624 9.14825,2.34349 10.88912,6.55788zM159.1108,205.63964c0,0 0.48297,-4.59347 -1.44967,-6.10784c-1.0838,-0.84924 -2.43389,-1.22527 -3.80345,-1.06158l-15.45566,1.8779c-1.36923,0.16629 -2.58881,0.85517 -3.43816,1.93911c-0.8472,1.0812 -1.22555,2.43159 -1.05696,3.80054c0.3275,2.73029 3.00623,4.82928 5.73561,4.49429l15.4597,-1.87474c1.86204,-0.22594 3.29706,-1.46574 4.00859,-3.06771z" stroke-width="1" stroke-linecap="butt"/><path d="M155.49737,203.16112l26.06039,-3.1622" stroke-width="5" stroke-linecap="round"/><path d="M206.88491,199.84252c-0.61223,4.59247 -4.22441,8.39179 -9.03272,8.97654l-15.45971,1.87472c-2.75898,0.33843 -5.48521,-0.42278 -7.67786,-2.1409c-2.19266,-1.71812 -3.58379,-4.18318 -3.91502,-6.94304c-0.33742,-2.76028 0.42349,-5.48909 2.13946,-7.67901c1.71812,-2.19266 4.18464,-3.58265 6.94624,-3.91643l15.45842,-1.87573c4.63487,-0.5624 9.14824,2.34349 10.88912,6.55788zM201.22828,200.52905c0,0 0.48296,-4.59347 -1.44968,-6.10784c-1.0838,-0.84924 -2.43389,-1.22527 -3.80345,-1.06158l-15.45567,1.8779c-1.36923,0.16629 -2.5888,0.85517 -3.43814,1.93911c-0.8472,1.0812 -1.22556,2.43159 -1.05697,3.80054c0.3275,2.73029 3.00623,4.82928 5.73562,4.4943l15.45969,-1.87474c1.86204,-0.22594 3.29706,-1.46575 4.00859,-3.06771z" stroke-width="1" stroke-linecap="butt"/><path d="M223.67524,194.88833l-26.06038,3.1622" stroke-width="5" stroke-linecap="round"/><path d="M249.00238,194.73194c-0.61223,4.59247 -4.22441,8.39178 -9.03272,8.97654l-15.45971,1.87472c-2.75898,0.33843 -5.48521,-0.42278 -7.67787,-2.1409c-2.19266,-1.71812 -3.58379,-4.18318 -3.91502,-6.94304c-0.33742,-2.76028 0.42349,-5.48909 2.13946,-7.679c1.71812,-2.19266 4.18464,-3.58266 6.94624,-3.91644l15.45842,-1.87573c4.63487,-0.5624 9.14824,2.34349 10.88912,6.55788zM243.34576,195.41846c0,0 0.48296,-4.59347 -1.44967,-6.10784c-1.0838,-0.84924 -2.43389,-1.22528 -3.80345,-1.06158l-15.45567,1.8779c-1.36923,0.16629 -2.5888,0.85517 -3.43815,1.93911c-0.8472,1.0812 -1.22555,2.43159 -1.05696,3.80054c0.3275,2.73029 3.00623,4.82928 5.73561,4.4943l15.4597,-1.87474c1.86204,-0.22594 3.29706,-1.46575 4.00859,-3.06771z" stroke-width="1" stroke-linecap="butt"/><path d="M265.79272,189.77774l-26.06039,3.16221" stroke-width="5" stroke-linecap="round"/><path d="M291.11985,189.62135c-0.61223,4.59247 -4.2244,8.39179 -9.03272,8.97655l-15.45971,1.87471c-2.75898,0.33843 -5.48521,-0.42278 -7.67787,-2.1409c-2.19266,-1.71812 -3.58378,-4.18318 -3.91502,-6.94303c-0.33742,-2.76028 0.42349,-5.48909 2.13946,-7.67901c1.71812,-2.19266 4.18464,-3.58265 6.94624,-3.91643l15.45842,-1.87574c4.63488,-0.5624 9.14824,2.34349 10.88912,6.55788zM285.46322,190.30787c0,0 0.48296,-4.59347 -1.44967,-6.10784c-1.0838,-0.84924 -2.43389,-1.22528 -3.80345,-1.06158l-15.45567,1.8779c-1.36923,0.16629 -2.5888,0.85517 -3.43815,1.93911c-0.8472,1.0812 -1.22555,2.43159 -1.05696,3.80054c0.3275,2.73029 3.00623,4.82928 5.73561,4.4943l15.4597,-1.87474c1.86204,-0.22594 3.29706,-1.46575 4.00858,-3.06771z" stroke-width="1" stroke-linecap="butt"/><path d="M281.84981,187.82935l26.06038,-3.1622" stroke-width="5" stroke-linecap="round"/><path d="M333.23733,184.51076c-0.61223,4.59247 -4.22441,8.39179 -9.03272,8.97655l-15.45971,1.87472c-2.75898,0.33843 -5.48521,-0.42278 -7.67786,-2.1409c-2.19266,-1.71812 -3.58379,-4.18318 -3.91502,-6.94303c-0.33742,-2.76028 0.42349,-5.48909 2.13946,-7.67901c1.71812,-2.19266 4.18464,-3.58265 6.94624,-3.91643l15.45842,-1.87574c4.63488,-0.5624 9.14824,2.34349 10.88911,6.55788zM327.5807,185.19728c0,0 0.48296,-4.59347 -1.44967,-6.10784c-1.0838,-0.84924 -2.43389,-1.22527 -3.80345,-1.06158l-15.45567,1.8779c-1.36923,0.16629 -2.5888,0.85518 -3.43815,1.93912c-0.8472,1.0812 -1.22555,2.43158 -1.05696,3.80053c0.3275,2.73029 3.00623,4.82928 5.73561,4.4943l15.4597,-1.87474c1.86204,-0.22594 3.29706,-1.46574 4.00858,-3.06771z" stroke-width="1" stroke-linecap="butt"/><path d="M323.96729,182.71876l26.06038,-3.1622" stroke-width="5" stroke-linecap="round"/><path d="M375.35481,179.40017c-0.61223,4.59247 -4.2244,8.39179 -9.03271,8.97655l-15.45972,1.87472c-2.75898,0.33843 -5.48521,-0.42279 -7.67786,-2.14091c-2.19266,-1.71812 -3.58379,-4.18318 -3.91502,-6.94303c-0.33742,-2.76028 0.42349,-5.48909 2.13946,-7.67901c1.71812,-2.19266 4.18464,-3.58265 6.94624,-3.91643l15.45842,-1.87574c4.63488,-0.5624 9.14824,2.34349 10.88912,6.55788zM369.69819,180.08669c0,0 0.48296,-4.59347 -1.44968,-6.10784c-1.0838,-0.84924 -2.43389,-1.22527 -3.80345,-1.06158l-15.45566,1.8779c-1.36923,0.16629 -2.5888,0.85517 -3.43815,1.93911c-0.8472,1.0812 -1.22556,2.43158 -1.05697,3.80053c0.3275,2.73029 3.00623,4.82929 5.73562,4.4943l15.4597,-1.87474c1.86204,-0.22594 3.29705,-1.46574 4.00858,-3.06771z" stroke-width="1" stroke-linecap="butt"/><path d="M392.14516,174.44597l-26.06038,3.1622" stroke-width="5" stroke-linecap="round"/><path d="M417.47229,174.28958c-0.61223,4.59247 -4.2244,8.39179 -9.03272,8.97654l-15.45971,1.87472c-2.75898,0.33843 -5.48521,-0.42279 -7.67786,-2.14091c-2.19266,-1.71812 -3.58378,-4.18318 -3.91502,-6.94303c-0.33742,-2.76028 0.42348,-5.48909 2.13945,-7.67901c1.71812,-2.19266 4.18464,-3.58265 6.94624,-3.91643l15.45842,-1.87574c4.63488,-0.5624 9.14824,2.34349 10.88912,6.55788zM411.81566,174.9761c0,0 0.48296,-4.59347 -1.44968,-6.10784c-1.0838,-0.84924 -2.43389,-1.22527 -3.80345,-1.06158l-15.45566,1.8779c-1.36923,0.16629 -2.5888,0.85517 -3.43815,1.93911c-0.8472,1.0812 -1.22556,2.43159 -1.05697,3.80054c0.3275,2.73029 3.00623,4.82928 5.73561,4.4943l15.45971,-1.87473c1.86204,-0.22594 3.29705,-1.46575 4.00858,-3.06771z" stroke-width="1" stroke-linecap="butt"/><path d="M408.20225,172.49758l26.06039,-3.1622" stroke-width="5" stroke-linecap="round"/><path d="M459.58977,169.17899c-0.61223,4.59247 -4.22441,8.39179 -9.03272,8.97654l-15.45971,1.87472c-2.75898,0.33843 -5.48521,-0.42278 -7.67786,-2.1409c-2.19266,-1.71812 -3.58378,-4.18318 -3.91502,-6.94304c-0.33742,-2.76028 0.42348,-5.48909 2.13945,-7.679c1.71812,-2.19266 4.18464,-3.58266 6.94624,-3.91644l15.45842,-1.87573c4.63488,-0.5624 9.14824,2.34349 10.88912,6.55788zM453.93314,169.86551c0,0 0.48296,-4.59347 -1.44968,-6.10784c-1.0838,-0.84924 -2.43389,-1.22527 -3.80345,-1.06158l-15.45566,1.8779c-1.36923,0.16629 -2.58881,0.85517 -3.43816,1.93911c-0.8472,1.0812 -1.22555,2.43159 -1.05696,3.80054c0.3275,2.73029 3.00623,4.82928 5.73561,4.4943l15.45971,-1.87473c1.86204,-0.22594 3.29705,-1.46575 4.00858,-3.06771z" stroke-width="1" stroke-linecap="butt"/><path d="M450.31972,167.38699l26.06039,-3.1622" stroke-width="5" stroke-linecap="round"/><path d="M501.70724,164.0684c-0.61223,4.59247 -4.2244,8.39178 -9.03271,8.97654l-15.45971,1.87472c-2.75898,0.33843 -5.48522,-0.42278 -7.67787,-2.1409c-2.19266,-1.71812 -3.58378,-4.18318 -3.91501,-6.94304c-0.33742,-2.76028 0.42348,-5.48909 2.13945,-7.679c1.71812,-2.19267 4.18464,-3.58266 6.94624,-3.91643l15.45842,-1.87574c4.63488,-0.5624 9.14824,2.34349 10.88912,6.55787zM496.05062,164.75492c0,0 0.48296,-4.59347 -1.44968,-6.10784c-1.0838,-0.84924 -2.4339,-1.22527 -3.80345,-1.06157l-15.45566,1.8779c-1.36923,0.16629 -2.5888,0.85517 -3.43815,1.93911c-0.8472,1.0812 -1.22555,2.43158 -1.05696,3.80054c0.3275,2.73029 3.00623,4.82928 5.73561,4.4943l15.4597,-1.87474c1.86204,-0.22594 3.29706,-1.46574 4.00858,-3.06771z" stroke-width="1" stroke-linecap="butt"/><path d="M492.4372,162.27641l26.06039,-3.1622" stroke-width="5" stroke-linecap="round"/><path d="M543.82472,158.95781c-0.61223,4.59247 -4.2244,8.39179 -9.03272,8.97655l-15.45972,1.87471c-2.75899,0.33844 -5.48522,-0.42277 -7.67787,-2.14089c-2.19266,-1.71812 -3.58378,-4.18318 -3.91501,-6.94304c-0.33742,-2.76028 0.42348,-5.48909 2.13945,-7.67901c1.71812,-2.19267 4.18463,-3.58265 6.94623,-3.91643l15.45842,-1.87574c4.63487,-0.5624 9.14825,2.34349 10.88913,6.55787zM538.1681,159.64433c0,0 0.48295,-4.59347 -1.44968,-6.10784c-1.0838,-0.84924 -2.4339,-1.22526 -3.80345,-1.06157l-15.45566,1.8779c-1.36923,0.16629 -2.58881,0.85517 -3.43816,1.93911c-0.8472,1.0812 -1.22555,2.43158 -1.05696,3.80053c0.3275,2.73029 3.00623,4.82929 5.73561,4.4943l15.4597,-1.87474c1.86204,-0.22594 3.29706,-1.46574 4.00859,-3.0677z" stroke-width="1" stroke-linecap="butt"/><path d="M534.55468,157.16582l26.06038,-3.1622" stroke-width="5" stroke-linecap="round"/><path d="M585.9422,153.84722c-0.61223,4.59247 -4.2244,8.39179 -9.03271,8.97655l-15.45972,1.87471c-2.75899,0.33844 -5.48522,-0.42277 -7.67787,-2.14089c-2.19265,-1.71812 -3.58379,-4.18318 -3.91502,-6.94304c-0.33741,-2.76028 0.42349,-5.48909 2.13945,-7.67901c1.71812,-2.19267 4.18464,-3.58265 6.94624,-3.91643l15.45842,-1.87574c4.63487,-0.5624 9.14824,2.3435 10.88912,6.55788zM580.28557,154.53375c0,0 0.48296,-4.59347 -1.44968,-6.10784c-1.0838,-0.84924 -2.43389,-1.22527 -3.80345,-1.06158l-15.45567,1.8779c-1.36923,0.16629 -2.5888,0.85517 -3.43815,1.93911c-0.8472,1.0812 -1.22555,2.43158 -1.05696,3.80053c0.3275,2.73029 3.00623,4.82929 5.73561,4.4943l15.4597,-1.87474c1.86204,-0.22594 3.29706,-1.46574 4.00859,-3.06771z" stroke-width="1" stroke-linecap="butt"/><path d="M576.67215,152.05523l26.06039,-3.1622" stroke-width="5" stroke-linecap="round"/><path d="M628.05968,148.73662c-0.61223,4.59247 -4.2244,8.39179 -9.03272,8.97654l-15.45971,1.87472c-2.75899,0.33844 -5.48522,-0.42277 -7.67787,-2.14089c-2.19265,-1.71812 -3.58379,-4.18318 -3.91502,-6.94304c-0.33741,-2.76028 0.42349,-5.48909 2.13946,-7.67901c1.71812,-2.19267 4.18464,-3.58266 6.94624,-3.91643l15.45841,-1.87574c4.63487,-0.5624 9.14824,2.34349 10.88912,6.55787zM622.40305,149.42316c0,0 0.48296,-4.59347 -1.44967,-6.10784c-1.0838,-0.84924 -2.4339,-1.22527 -3.80345,-1.06158l-15.45566,1.8779c-1.36923,0.16629 -2.58881,0.85517 -3.43816,1.93911c-0.8472,1.0812 -1.22555,2.43159 -1.05696,3.80054c0.3275,2.73029 3.00623,4.82928 5.73561,4.4943l15.4597,-1.87474c1.86204,-0.22594 3.29705,-1.46574 4.00858,-3.06771z" stroke-width="1" stroke-linecap="butt"/><path d="M644.85002,143.78244l-26.06038,3.1622" stroke-width="5" stroke-linecap="round"/><path d="M670.17716,143.62604c-0.61223,4.59247 -4.2244,8.39178 -9.03271,8.97654l-15.45972,1.87473c-2.75899,0.33844 -5.48521,-0.42278 -7.67786,-2.1409c-2.19265,-1.71812 -3.58379,-4.18318 -3.91502,-6.94305c-0.33741,-2.76028 0.42349,-5.48909 2.13945,-7.67901c1.71812,-2.19266 4.18464,-3.58265 6.94624,-3.91643l15.45842,-1.87573c4.63487,-0.5624 9.14824,2.34349 10.88912,6.55787zM664.52053,144.31257c0,0 0.48296,-4.59347 -1.44967,-6.10784c-1.0838,-0.84924 -2.4339,-1.22527 -3.80345,-1.06158l-15.45566,1.8779c-1.36923,0.16629 -2.5888,0.85517 -3.43815,1.93911c-0.8472,1.0812 -1.22555,2.43159 -1.05696,3.80054c0.3275,2.73029 3.00623,4.82928 5.73561,4.4943l15.4597,-1.87473c1.86204,-0.22594 3.29706,-1.46575 4.00859,-3.06772z" stroke-width="1" stroke-linecap="butt"/></g><text transform="translate(165.21539,214.90314) scale(2.0168,1.0084) skewX(-28.48304)" font-size="40" xml:space="preserve" fill="#484848" stroke="#000000" stroke-width="0" stroke-linecap="butt" font-family="&quot;Comic Sans MS&quot;, Handwriting" font-weight="400" text-anchor="start"><tspan x="0" dy="0">waechain</tspan></text><text transform="translate(152.59042,203.26875) scale(2.0168,2.0168)" font-size="40" xml:space="preserve" fill="#ffffff" stroke="#000000" stroke-width="5" stroke-linecap="butt" font-family="&quot;Comic Sans MS&quot;, Handwriting" font-weight="400" text-anchor="start"><tspan x="0" dy="0">waechain</tspan></text><text transform="translate(152.59042,203.26875) scale(2.0168,2.0168)" font-size="40" xml:space="preserve" fill="#ffffff" stroke="#000000" stroke-width="0" stroke-linecap="butt" font-family="&quot;Comic Sans MS&quot;, Handwriting" font-weight="400" text-anchor="start"><tspan x="0" dy="0">waechain</tspan></text><text transform="translate(247.50001,233.2391) scale(0.5,0.5)" font-size="40" xml:space="preserve" fill="#ffffff" stroke="#000000" stroke-width="1" stroke-linecap="butt" font-family="&quot;Comic Sans MS&quot;, Handwriting" font-weight="400" text-anchor="start"><tspan x="0" dy="0">the scratch maelink client</tspan></text><text transform="translate(15.14218,263.25065) scale(0.5,0.5)" font-size="40" xml:space="preserve" fill="#ffffff" stroke="none" stroke-width="1" stroke-linecap="butt" font-family="&quot;Comic Sans MS&quot;, Handwriting" font-weight="normal" text-anchor="start"><tspan x="0" dy="0">could not connect to custom server address. make sure you put in</tspan><tspan x="0" dy="48px">the correct credentials.</tspan><tspan x="0" dy="48px">                press space to punch in another custom server address</tspan><tspan x="0" dy="48px">                                                     press r to retry the connection</tspan><tspan x="0" dy="48px">                                                  press a to retry the main servers</tspan></text><path d="M0.00001,414v-22h640v22z" fill="none" stroke="none" stroke-width="0" stroke-linecap="butt"/></g></g></svg>