<svg version="1.1" xmlns="http://www.w3.org/2000/svg" xmlns:xlink="http://www.w3.org/1999/xlink" width="53.16902" height="30.03525" viewBox="0,0,53.16902,30.03525"><g transform="translate(-293.41548,-164.98237)"><g fill="#4a677e" stroke="#000000" stroke-width="0.5" stroke-miterlimit="10"><path d="M317.31892,192.26762c0,-1.38071 1.11929,-2.5 2.5,-2.5c1.38071,0 2.5,1.11929 2.5,2.5c0,1.38071 -1.11929,2.5 -2.5,2.5c-1.38071,0 -2.5,-1.11929 -2.5,-2.5z"/><path d="M330.58669,189.83539c-1.76776,1.76776 -3.53553,0 -3.53553,0l-0.41533,-0.43287c-1.34855,-1.10389 -2.50866,-2.44649 -3.95292,-3.42183c-3.63482,-2.45469 -8.07662,0.62082 -9.3563,4.04847c0,0 -0.96154,2.30769 -3.26923,1.34615c-2.30769,-0.96154 -1.34615,-3.26923 -1.34615,-3.26923c2.29044,-5.15529 7.50889,-9.11827 13.49169,-7.66929c3.19439,0.77365 5.16711,3.10714 7.59909,5.09593l0.78467,0.76713c0,0 1.76776,1.76776 0,3.53553z"/><path d="M337.98669,184.43539c-1.76776,1.76776 -3.53553,0 -3.53553,0l-1.29047,-1.29536c-0.29381,-0.32667 -2.70931,-3.06636 -3.23951,-3.47072c-2.27033,-1.73149 -5.4758,-2.01684 -8.20632,-1.90353c-7.40052,0.3071 -12.63194,3.22396 -16.84046,9.32487c0,0 -1.42303,2.05548 -3.47851,0.63245c-2.05548,-1.42302 -0.63245,-3.47851 -0.63245,-3.47851c6.3138,-9.09031 18.54052,-14.87833 29.45326,-10.06923c2.89348,1.27512 4.59908,3.33087 6.66046,5.61984l1.10953,1.10465c0,0 1.76776,1.76777 0,3.53553z"/><path d="M344.93695,182.10369c-2.23607,1.11803 -3.3541,-1.11803 -3.3541,-1.11803l-0.22939,-0.46082c-0.6387,-1.41709 -1.40534,-2.84003 -2.51951,-3.92386c-6.81791,-4.50006 -15.90107,-7.87394 -24.18554,-5.7139c-6.56588,1.71194 -12.00422,6.27598 -16.66172,10.94832c0,0 -1.76777,1.76777 -3.53553,0c-1.76777,-1.76777 0,-3.53553 0,-3.53553c5.30732,-5.29221 11.48845,-10.32882 18.93828,-12.25168c9.89337,-2.55356 20.48508,1.22167 28.61446,6.6861c1.60766,1.63353 2.89028,3.60915 3.88049,5.67614l0.17061,0.33918c0,0 1.11803,2.23607 -1.11803,3.3541z"/></g></g></svg>